<svg id="visual" viewBox="0 0 900 600" width="900" height="600" xmlns="http://www.w3.org/2000/svg" xmlns:xlink="http://www.w3.org/1999/xlink" version="1.1"><rect x="0" y="0" width="900" height="600" fill="#EEEDE7"></rect><path d="M0 95L21.5 108C43 121 86 147 128.8 166.5C171.7 186 214.3 199 257.2 193.8C300 188.7 343 165.3 385.8 142.5C428.7 119.7 471.3 97.3 514.2 91C557 84.7 600 94.3 642.8 111.7C685.7 129 728.3 154 771.2 161C814 168 857 157 878.5 151.5L900 146L900 0L878.5 0C857 0 814 0 771.2 0C728.3 0 685.7 0 642.8 0C600 0 557 0 514.2 0C471.3 0 428.7 0 385.8 0C343 0 300 0 257.2 0C214.3 0 171.7 0 128.8 0C86 0 43 0 21.5 0L0 0Z" fill="#140005" stroke-linecap="round" stroke-linejoin="miter"></path></svg>